# xmcd
#
# Track frame offsets:
#	150
#	20442
#	31072
#	44700
#	55330
#	71582
#	84720
#	91545
#	106847
#	119322
#	131775
#	144145
#	155657
#	170222
#	180990
#	194575
#	207975
#	217820
#
# Disc length: 3007 seconds
# Revision: 5
# Processed by: cddbd v1.5.2PL0 Copyright (c) Steve Scherf et al.
# Submitted via: dBpowerAMP V12.0
#
DISCID=fb0bbd12
DTITLE=Various Artist - Best of Country and Western Vol. 2
DYEAR=1988
DGENRE=Country
TTITLE0=Gram Parson and Emmylou Harris - Love hurts
TTITLE1=Johnny Cash - Oh, lonesome me
TTITLE2=Freddy Fender - Baby, I want to love you
TTITLE3=Donna Fargo - All that's keeping me alive
TTITLE4=Rex Allen, Jr. - Memory train
TTITLE5=Stu Stevens - Love me tender
TTITLE6=Waylon Jennings - It's so easy
TTITLE7=Ray Pillow - How do I hide from
TTITLE8=Gene Simmons - The haunted house
TTITLE9=Frankie Lane - High noon
TTITLE10=Ray Price - Let it rain, let her cry
TTITLE11=Patsy Cline - I've loved and lost again
TTITLE12=Andy Frosrman - My Tennessee home
TTITLE13=Sandy Posey - Single girl
TTITLE14=Willie Nelson - Home is were you're happy
TTITLE15=Patti Page - The Tennessee Waltz
TTITLE16=Dave Dudley - Cowboy boots
TTITLE17=Susan Ray - I've got a happy heart
EXTD=
EXTT0=
EXTT1=
EXTT2=
EXTT3=
EXTT4=
EXTT5=
EXTT6=
EXTT7=
EXTT8=
EXTT9=
EXTT10=
EXTT11=
EXTT12=
EXTT13=
EXTT14=
EXTT15=
EXTT16=
EXTT17=
PLAYORDER=
